<svg width="1604" height="1608" xmlns="http://www.w3.org/2000/svg" xmlns:xlink="http://www.w3.org/1999/xlink" xml:space="preserve" overflow="hidden"><g transform="translate(-1320 -614)"><g><path d="M1320 1418C1320 975.068 1679.07 616 2122 616 2564.93 616 2924 975.068 2924 1418 2924 1860.93 2564.93 2220 2122 2220 1679.07 2220 1320 1860.93 1320 1418Z" fill="#7666F1" fill-rule="evenodd" fill-opacity="1"/><path d="M1568 1237.95C1568 1200.42 1598.42 1170 1635.95 1170L1665.05 1170C1702.58 1170 1733 1200.42 1733 1237.95L1733 1597.05C1733 1634.58 1702.58 1665 1665.05 1665L1635.95 1665C1598.42 1665 1568 1634.58 1568 1597.05Z" fill="#FFFFFF" fill-rule="evenodd" fill-opacity="1"/><path d="M1848 1149.45C1848 1116.06 1875.06 1089 1908.45 1089L1952.55 1089C1985.94 1089 2013 1116.06 2013 1149.45L2013 1688.55C2013 1721.94 1985.94 1749 1952.55 1749L1908.45 1749C1875.06 1749 1848 1721.94 1848 1688.55Z" fill="#FFFFFF" fill-rule="evenodd" fill-opacity="1"/><path d="M2129 1067.45C2129 1034.06 2156.06 1007 2189.45 1007L2233.55 1007C2266.93 1007 2294 1034.06 2294 1067.45L2294 1771.55C2294 1804.93 2266.93 1832 2233.55 1832L2189.45 1832C2156.06 1832 2129 1804.93 2129 1771.55Z" fill="#FFFFFF" fill-rule="evenodd" fill-opacity="1"/><path d="M2409 984.451C2409 951.065 2436.06 924 2469.45 924L2513.55 924C2546.94 924 2574 951.065 2574 984.451L2574 1853.55C2574 1886.94 2546.94 1914 2513.55 1914L2469.45 1914C2436.06 1914 2409 1886.94 2409 1853.55Z" fill="#FFFFFF" fill-rule="evenodd" fill-opacity="1"/></g></g></svg>